<svg xmlns="http://www.w3.org/2000/svg" width="224.176" height="225.643" viewBox="0 0 224.176 225.643"><defs><style>.a{fill:#eaeaea;fill-rule:evenodd;}</style></defs><path class="a" d="M515.184,950.688c12.593-3.367,24.562-8.977,27.68-18.2a19.754,19.754,0,0,0,.373-9.726c-6.608-12.094-31.794-4.863-41.27-1.87-25.435,7.979-52.866,11.969-79.549,13.839h-3.99c-5.486-.373-10.722-1-15.71-1.745-21.944-4.115-41.27-15.959-50.747-38.029-5.86-13.465-6.732-28.552-3.616-42.892a86.165,86.165,0,0,1,22.693-41.144c25.062-25.561,63.216-31.795,98-31.545-6.733-9.851-13.466-19.7-20.2-29.676l-4.613-6.857,8.229-1.371c5.611-.874,11.347-1.871,17.082-2.744l2.743-.5,1.87,1.994c12.718,13.091,25.435,26.309,38.029,39.4,7.481.748,14.837,1.62,22.193,2.868a167.9,167.9,0,0,1,17.83,4.115c7.107,2.243,17.207,6.358,18.453,14.836a12.035,12.035,0,0,1,0,2.993l-.125.25v.372c-1.995,7.981-12.593,9.85-19.576,10.473a160.766,160.766,0,0,1-17.331.375c-6.857-.249-13.59-.747-20.448-1.495q-18.515,22.07-37.156,43.888l-1.621,2-2.742-.125q-9.166-.558-18.329-1.122l-8.6-.624,4.364-7.481c7.481-12.593,14.962-25.31,22.443-38.029-61.345,5.362-92.142,54.364-66.956,102.865h0c.749,4.115-.623,4.238-4.239.249-18.827-30.8-17.082-59.349,5.486-85.783,16.459-16.583,42.144-27.306,75.185-28.552l9.725-.374-4.988,8.355c-7.73,13.091-15.335,26.183-23.066,39.275,2.369.126,4.613.25,6.982.375,12.468-14.587,24.812-29.176,37.28-43.889l1.746-2.12,2.743.25c11.72,1.246,24.562,2.244,36.158,1.495a42.489,42.489,0,0,0,9.726-1.371,20.526,20.526,0,0,0,2.618-1.121,7.692,7.692,0,0,0-1.746-1.746,36.759,36.759,0,0,0-9.1-3.99,126.026,126.026,0,0,0-16.458-3.865c-7.731-1.247-15.586-2.245-23.316-2.992l-1.995-.125-1.372-1.372-37.405-38.9c-2.12.375-4.115.747-6.234,1.122,7.108,10.349,14.214,20.822,21.321,31.3l5.985,8.727-10.6-.375c-33.914-1.62-75.184,2.245-100.371,28.054a74.649,74.649,0,0,0-19.824,36.035A59.692,59.692,0,0,0,361.7,890.84c6.608,15.335,18.952,24.563,33.416,29.3a56.146,56.146,0,0,0,13.839,3.118,89.5,89.5,0,0,0,12.968.873c25.685-1.87,52.243-5.61,76.93-13.342,16.084-5.112,44.887-11.845,54.237,7.855l.25.625.124.5c1.122,5.361,1.248,10.849-.624,16.085-7.481,22.319-40.9,27.3-61.344,27.93q-40.959,1.5-70.446-22.07c-1.5-1.373-2.119-2.369-1.871-3.117,1-.625,2.619-.5,4.614.623h0c24.687,18.451,62.342,19.451,91.394,11.471Z" transform="translate(-346.586 -738.227)"/></svg>