<svg id="campaign_black_24dp" xmlns="http://www.w3.org/2000/svg" width="30" height="30" viewBox="0 0 30 30">
  <g id="Group_565" data-name="Group 565">
    <rect id="Rectangle_527" data-name="Rectangle 527" width="30" height="30" fill="none"/>
  </g>
  <path id="Path_161" data-name="Path 161" d="M18,11v2.5h5V11Z" transform="translate(4.5 2.75)" fill="#666"/>
  <path id="Path_162" data-name="Path 162" d="M16,18.013c1.2.887,2.762,2.063,4,2.987.5-.663,1-1.337,1.5-2-1.237-.925-2.8-2.1-4-3C17,16.675,16.5,17.35,16,18.013Z" transform="translate(4 4)" fill="#666"/>
  <path id="Path_163" data-name="Path 163" d="M21.5,6c-.5-.662-1-1.337-1.5-2-1.237.925-2.8,2.1-4,3,.5.663,1,1.338,1.5,2C18.7,8.1,20.263,6.938,21.5,6Z" transform="translate(4 1)" fill="#666"/>
  <path id="Path_164" data-name="Path 164" d="M4.5,9.75A2.507,2.507,0,0,0,2,12.25v2.5a2.507,2.507,0,0,0,2.5,2.5H5.75v5h2.5v-5H9.5L15.75,21V6L9.5,9.75Zm6.287,2.137,2.463-1.475v6.175l-2.463-1.475-.6-.362H4.5v-2.5h5.688Z" transform="translate(0.5 1.5)" fill="#666"/>
  <path id="Path_165" data-name="Path 165" d="M15.875,12.837A5.6,5.6,0,0,0,14,8.65v8.362A5.553,5.553,0,0,0,15.875,12.837Z" transform="translate(3.5 2.162)" fill="#666"/>
</svg>
