<svg xmlns="http://www.w3.org/2000/svg" viewBox="0 0 431.83 434.65"><defs><style>.cls-1{fill:#76a4d1;fill-rule:evenodd;}</style></defs><g id="Layer_2" data-name="Layer 2"><g id="Layer_2-2" data-name="Layer 2"><path class="cls-1" d="M324.77,409.26C349,402.78,372.08,392,378.09,374.2a38.08,38.08,0,0,0,.72-18.74c-12.73-23.29-61.25-9.36-79.5-3.6-49,15.37-101.83,23.06-153.23,26.66h-7.69c-10.57-.72-20.65-1.92-30.26-3.36-42.27-7.93-79.5-30.74-97.75-73.26-11.29-25.94-13-55-7-82.62,6.73-30,22.34-57.4,43.71-79.26C95.4,90.79,168.89,78.78,235.9,79.26c-13-19-25.94-37.95-38.91-57.16L188.11,8.89,204,6.24c10.81-1.68,21.86-3.6,32.9-5.28l5.29-1,3.6,3.84c24.5,25.22,49,50.68,73.26,75.9,14.41,1.44,28.58,3.12,42.75,5.52a324.4,324.4,0,0,1,34.34,7.93c13.69,4.32,33.15,12.25,35.55,28.58a23.13,23.13,0,0,1,0,5.76l-.24.48v.73c-3.84,15.37-24.26,19-37.71,20.17a310,310,0,0,1-33.38.72c-13.21-.48-26.18-1.44-39.39-2.88q-35.67,42.51-71.58,84.54l-3.12,3.84-5.28-.24-35.31-2.16-16.57-1.2,8.41-14.41c14.41-24.26,28.82-48.76,43.23-73.25C122.54,154.19,63.22,248.58,111.73,342h0c1.44,7.93-1.2,8.17-8.16.48C67.3,283.17,70.66,228.17,114.13,177.25c31.71-31.94,81.18-52.6,144.83-55l18.73-.72-9.6,16.09c-14.89,25.22-29.54,50.44-44.44,75.66l13.45.72c24-28.1,47.8-56.2,71.82-84.54l3.36-4.09,5.28.48c22.58,2.41,47.32,4.33,69.66,2.89A82,82,0,0,0,406,126.09c1-.48,3.6-1.2,5-2.16a14.78,14.78,0,0,0-3.36-3.36c-5-3.36-12-6-17.53-7.69-10.33-3.36-21.14-5.52-31.71-7.44-14.89-2.4-30-4.33-44.91-5.77l-3.84-.24L307,96.79,234.94,21.86c-4.08.72-7.92,1.44-12,2.16C236.62,44,250.31,64.13,264,84.3l11.53,16.81-20.41-.72c-65.33-3.12-144.83,4.33-193.35,54-18.73,19.22-32.42,43-38.18,69.42-5.29,23.29-3.85,48,5.52,70.13,12.73,29.54,36.51,47.31,64.37,56.44,5.76,2.4,14.89,4.56,26.66,6a170.92,170.92,0,0,0,25,1.69c49.47-3.61,100.63-10.81,148.19-25.7,31-9.85,86.46-22.82,104.47,15.13l.48,1.2.24,1c2.17,10.33,2.41,20.89-1.2,31-14.41,43-78.78,52.6-118.16,53.8q-78.9,2.88-135.7-42.51c-2.89-2.64-4.09-4.56-3.61-6,1.92-1.2,5-1,8.89,1.2h0c47.55,35.54,120.09,37.46,176,22.09Z"/></g></g></svg>