<svg xmlns="http://www.w3.org/2000/svg" xmlns:xlink="http://www.w3.org/1999/xlink" width="205" height="210" viewBox="0 0 205 210"><defs><style>.a{fill:#23456b;}.b{fill:#eaeaea;fill-rule:evenodd;}.c{filter:url(#a);}</style><filter id="a" x="0" y="0" width="205" height="210" filterUnits="userSpaceOnUse"><feOffset dx="5" input="SourceAlpha"/><feGaussianBlur stdDeviation="15" result="b"/><feFlood flood-opacity="0.608"/><feComposite operator="in" in2="b"/><feComposite in="SourceGraphic"/></filter></defs><g transform="translate(40 45)"><g class="c" transform="matrix(1, 0, 0, 1, -40, -45)"><rect class="a" width="115" height="120" transform="translate(40 45)"/></g><g transform="translate(27 30)"><path class="b" d="M391.964,795.411c3.389-.906,6.611-2.416,7.45-4.9a5.316,5.316,0,0,0,.1-2.618c-1.778-3.255-8.557-1.309-11.108-.5A94.17,94.17,0,0,1,367,791.115h-1.074c-1.476-.1-2.886-.268-4.228-.47-5.906-1.108-11.108-4.3-13.658-10.235a18.888,18.888,0,0,1-.973-11.544,23.191,23.191,0,0,1,6.108-11.074c6.745-6.88,17.014-8.557,26.377-8.49-1.812-2.651-3.624-5.3-5.436-7.987l-1.242-1.846,2.215-.369c1.51-.235,3.054-.5,4.6-.738l.738-.134.5.537c3.423,3.523,6.846,7.081,10.235,10.6,2.013.2,3.993.436,5.973.772a45.205,45.205,0,0,1,4.8,1.108c1.913.6,4.631,1.711,4.967,3.993a3.239,3.239,0,0,1,0,.805l-.034.067v.1c-.537,2.148-3.389,2.651-5.269,2.819a43.272,43.272,0,0,1-4.665.1c-1.846-.067-3.658-.2-5.5-.4q-4.983,5.94-10,11.812l-.436.537-.738-.034-4.933-.3L373,770.577l1.174-2.013c2.013-3.389,4.027-6.812,6.04-10.235-16.511,1.443-24.8,14.632-18.021,27.686h0c.2,1.108-.168,1.141-1.141.067-5.067-8.289-4.6-15.974,1.476-23.088,4.43-4.463,11.343-7.349,20.236-7.685l2.618-.1-1.342,2.249c-2.081,3.523-4.128,7.047-6.208,10.571l1.879.1c3.356-3.926,6.678-7.853,10.034-11.813l.47-.571.738.067a59.185,59.185,0,0,0,9.732.4,11.437,11.437,0,0,0,2.618-.369,5.529,5.529,0,0,0,.7-.3,2.072,2.072,0,0,0-.47-.47,9.9,9.9,0,0,0-2.45-1.074,33.917,33.917,0,0,0-4.43-1.04c-2.081-.336-4.195-.6-6.275-.805l-.537-.034-.369-.369-10.068-10.47c-.571.1-1.107.2-1.678.3,1.913,2.785,3.826,5.6,5.738,8.423l1.611,2.349-2.853-.1c-9.128-.436-20.236.6-27.015,7.551a20.091,20.091,0,0,0-5.336,9.7,16.066,16.066,0,0,0,.772,9.8,14.137,14.137,0,0,0,8.994,7.886,15.111,15.111,0,0,0,3.725.839,24.085,24.085,0,0,0,3.49.235,92.289,92.289,0,0,0,20.706-3.591c4.329-1.376,12.081-3.188,14.6,2.114l.067.168.033.134a7.911,7.911,0,0,1-.168,4.329c-2.013,6.007-11.007,7.349-16.511,7.517a27.743,27.743,0,0,1-18.96-5.94c-.4-.37-.57-.638-.5-.839a1.256,1.256,0,0,1,1.242.168h0c6.645,4.966,16.779,5.235,24.6,3.087Z" transform="translate(-346.586 -738.227)"/></g></g></svg>