<svg xmlns="http://www.w3.org/2000/svg" width="31.002" height="31" viewBox="0 0 31.002 31"><defs><style>.a{fill:#fd8c6d;}</style></defs><g transform="translate(-2.999 -3)"><path class="a" d="M13.334,16.778a5.167,5.167,0,0,0-3.444-4.85V3H6.445v8.928a5.136,5.136,0,0,0,0,9.7V34H9.89V21.628A5.167,5.167,0,0,0,13.334,16.778ZM8.167,18.5A1.722,1.722,0,1,1,9.89,16.778,1.722,1.722,0,0,1,8.167,18.5Z" transform="translate(0 0)"/><path class="a" d="M15.89,22.261V3H12.445V22.261a5.136,5.136,0,0,0,0,9.7V34H15.89V31.961a5.136,5.136,0,0,0,0-9.7Zm-1.722,6.572a1.722,1.722,0,1,1,1.722-1.722A1.722,1.722,0,0,1,14.167,28.833Z" transform="translate(4.333 0)"/><path class="a" d="M25.334,11.611a5.167,5.167,0,0,0-3.444-4.85V3H18.445V6.761a5.136,5.136,0,0,0,0,9.7V34H21.89V16.461A5.167,5.167,0,0,0,25.334,11.611Zm-5.167,1.722a1.722,1.722,0,1,1,1.722-1.722A1.722,1.722,0,0,1,20.167,13.333Z" transform="translate(8.667 0)"/></g></svg>