<svg xmlns="http://www.w3.org/2000/svg" width="21.645" height="14.826" viewBox="0 0 21.645 14.826"><defs><style>.a{fill:#04da00;}</style></defs><path class="a" d="M230.327,2177.674a1.812,1.812,0,0,0-2.563,0l-9.92,9.92-5.537-5.537a1.812,1.812,0,1,0-2.563,2.563l6.818,6.818c.042.042.087.082.133.12.021.017.043.032.064.048s.051.039.078.057.052.032.078.048.048.03.073.043.054.027.082.04.052.026.079.037.054.02.081.03.057.021.086.03.055.014.082.021.06.016.09.022.063.01.095.014.053.009.081.011a1.74,1.74,0,0,0,.175.009h.008c.058,0,.116,0,.174-.009.027,0,.054-.008.081-.011s.063-.009.095-.014.06-.015.091-.022.055-.013.082-.021.058-.02.087-.03.054-.018.081-.03.053-.025.079-.037.055-.025.081-.04.05-.029.074-.043.053-.031.078-.048.053-.038.079-.058.043-.031.063-.047c.046-.038.091-.078.133-.12l11.2-11.2A1.812,1.812,0,0,0,230.327,2177.674Z" transform="translate(-209.214 -2177.144)"/></svg>