<svg id="Layer_1" data-name="Layer 1" xmlns="http://www.w3.org/2000/svg" viewBox="0 0 833.47 838.93"><defs><style>.cls-1{fill:#FFFFFF;fill-rule:evenodd;}</style></defs><path class="cls-1" d="M710.1,870.46c46.82-12.52,91.32-33.38,102.91-67.68,3.71-11.59,3.71-24.11,1.39-36.16-24.57-45-118.21-18.08-153.44-7-94.56,29.67-196.55,44.51-295.75,51.46H350.37c-20.39-1.39-39.86-3.71-58.41-6.49-81.58-15.3-153.44-59.34-188.67-141.39-21.79-50.06-25-106.16-13.44-159.47,13-57.94,43.11-110.79,84.37-153,93.17-95,235-118.21,364.36-117.29-25-36.62-50.06-73.24-75.1-110.32l-17.15-25.5,30.6-5.1c20.86-3.24,42.18-7,63.51-10.2l10.19-1.85,7,7.41c47.28,48.68,94.57,97.82,141.39,146.49,27.81,2.78,55.16,6,82.51,10.66,22.25,4.18,45,8.81,66.29,15.3,26.42,8.35,64,23.64,68.61,55.17a45,45,0,0,1,0,11.12l-.47.93V329c-7.41,29.67-46.82,36.62-72.78,38.94-21.32,1.85-43.11,1.85-64.43,1.39-25.5-.93-50.53-2.78-76-5.56Q633.85,445.83,564.54,527l-6,7.42-10.19-.46-68.15-4.18-32-2.31,16.22-27.82c27.81-46.82,55.63-94.1,83.44-141.39C319.78,378.15,205.28,560.33,298.92,740.66h0c2.78,15.29-2.32,15.76-15.76.92-70-114.5-63.51-220.65,20.39-318.93C364.74,361,460.24,321.13,583.08,316.49l36.16-1.39L600.7,346.16c-28.74,48.68-57,97.35-85.76,146,8.81.46,17.15.92,26,1.39,46.36-54.24,92.25-108.48,138.61-163.18l6.49-7.88,10.19.93c43.58,4.63,91.33,8.34,134.44,5.56,11.59-.46,25-1.85,36.16-5.1,1.85-.93,7-2.32,9.73-4.17a28.57,28.57,0,0,0-6.49-6.49c-9.73-6.49-23.18-11.59-33.84-14.84C816.26,291.92,795.4,287.75,775,284c-28.74-4.63-58-8.34-86.69-11.12l-7.41-.47-5.1-5.09L536.73,122.72c-7.88,1.39-15.3,2.78-23.18,4.17,26.42,38.48,52.85,77.42,79.27,116.36l22.25,32.45-39.4-1.39c-126.09-6-279.53,8.34-373.18,104.3-36.15,37.09-62.58,83-73.7,134-10.2,45-7.42,92.72,10.66,135.36,24.57,57,70.46,91.33,124.24,108.94,11.12,4.64,28.74,8.81,51.45,11.59a332.21,332.21,0,0,0,48.21,3.25c95.5-7,194.24-20.86,286-49.61,59.8-19,166.89-44,201.66,29.21l.92,2.32.47,1.85c4.17,19.93,4.63,40.33-2.32,59.8-27.82,83-152.05,101.52-228.08,103.84q-152.28,5.57-261.91-82c-5.56-5.1-7.88-8.81-7-11.59,3.71-2.32,9.74-1.85,17.16,2.32h0c91.78,68.61,231.78,72.31,339.79,42.65Z" transform="translate(-83.26 -80.54)"/></svg>