<svg width="23" height="23" viewBox="0 0 23 23" fill="none" xmlns="http://www.w3.org/2000/svg">
<g opacity="0.2">
<path d="M0.92 23H22.08C22.5889 23 23 22.5889 23 22.08V0.92C23 0.411125 22.5889 0 22.08 0H0.92C0.411125 0 0 0.411125 0 0.92V22.08C0 22.5889 0.411125 23 0.92 23ZM6.78213 7.30537C6.65563 7.15587 6.762 6.92875 6.9575 6.92875H8.65088C8.786 6.92875 8.91537 6.98912 9.0045 7.09262L11.5 10.0682L13.9955 7.09262C14.0817 6.98912 14.2111 6.92875 14.3491 6.92875H16.0425C16.238 6.92875 16.3444 7.15587 16.2179 7.30537L12.7017 11.5L16.2179 15.6946C16.2462 15.7279 16.2644 15.7687 16.2703 15.8121C16.2761 15.8554 16.2694 15.8995 16.251 15.9392C16.2325 15.9788 16.203 16.0124 16.1661 16.0358C16.1291 16.0592 16.0862 16.0715 16.0425 16.0712H14.3491C14.214 16.0712 14.0846 16.0109 13.9955 15.9074L11.5 12.9317L9.0045 15.9074C8.91825 16.0109 8.78888 16.0712 8.65088 16.0712H6.9575C6.762 16.0712 6.65563 15.8441 6.78213 15.6946L10.2983 11.5L6.78213 7.30537Z" fill="black"/>
</g>
</svg>
