<svg width="20" height="24" viewBox="0 0 20 24" fill="none" xmlns="http://www.w3.org/2000/svg">
<path d="M8.63636 0C6.85636 0 5.42636 1.50006 5.42636 3.31359V3.71649H1.81818C1.31727 3.71649 0.909091 4.13046 0.909091 4.63847V5.56045H0V7.4044H1.81818V21.2341C1.81818 22.7507 3.05 24 4.54545 24H15.4545C16.95 24 18.1818 22.7507 18.1818 21.2341V7.4044H20V5.56045H19.0909V4.63847C19.0909 4.13046 18.6827 3.71649 18.1818 3.71649H14.5736V3.31267C14.5736 1.50006 13.1436 0 11.3636 0H8.63636ZM8.63636 1.90112H11.3636C12.0945 1.90112 12.6991 2.50594 12.6991 3.31267V3.71649H7.3V3.31267C7.3 2.50594 7.90455 1.90204 8.63545 1.90204L8.63636 1.90112ZM3.63636 7.4044H8.29545C8.40818 7.41639 8.52 7.43298 8.63636 7.43298H11.3636C11.48 7.43298 11.5909 7.41639 11.7045 7.4044H16.3636V21.2341C16.3636 21.7531 15.9664 22.156 15.4545 22.156H4.54545C4.03364 22.156 3.63636 21.7531 3.63636 21.2341V7.4044ZM5.45455 9.24836V20.3121H7.27273V9.24836H5.45455ZM9.09091 9.24836V20.3121H10.9091V9.24836H9.09091ZM12.7273 9.24836V20.3121H14.5455V9.24836H12.7273Z" fill="black"/>
</svg>
