<svg width="29" height="29" viewBox="0 0 29 29" fill="none" xmlns="http://www.w3.org/2000/svg">
<path fill-rule="evenodd" clip-rule="evenodd" d="M20.6262 6.42464H18.7904C18.1487 6.42464 17.6285 5.90444 17.6285 5.26273C17.6285 4.62103 18.1487 4.10083 18.7904 4.10083H23.438C24.0797 4.10083 24.5999 4.62103 24.5999 5.26273V9.91035C24.5999 10.5521 24.0797 11.0723 23.438 11.0723C22.7963 11.0723 22.2761 10.5521 22.2761 9.91035V8.07454L14.9677 15.3713L14.961 15.378C14.5054 15.8299 13.7697 15.8269 13.3178 15.3713L13.3111 15.3646C12.8592 14.909 12.8622 14.1733 13.3178 13.7214L20.6262 6.42464ZM22.2762 14.558C22.2762 13.9163 22.7964 13.3961 23.4381 13.3961C24.0798 13.3961 24.6 13.9163 24.6 14.558V21.5295C24.6 23.4546 23.0394 25.0152 21.1143 25.0152H7.1714C5.2463 25.0152 3.68568 23.4546 3.68568 21.5295V7.58661C3.68568 5.66151 5.2463 4.1009 7.1714 4.1009H14.1428C14.7845 4.1009 15.3047 4.6211 15.3047 5.2628C15.3047 5.9045 14.7845 6.42471 14.1428 6.42471H7.1714C6.5297 6.42471 6.00949 6.94491 6.00949 7.58661V21.5295C6.00949 22.1712 6.5297 22.6914 7.1714 22.6914H21.1143C21.756 22.6914 22.2762 22.1712 22.2762 21.5295V14.558Z" fill="#CBCBCB" fill-opacity="0.7"/>
</svg>
