<svg width="47" height="47" viewBox="0 0 47 47" fill="none" xmlns="http://www.w3.org/2000/svg">
<path d="M19.9593 14.3713L15.5506 11.8257C15.2035 11.5912 14.7851 11.4546 14.3347 11.4546C13.1328 11.4546 12.1582 12.4291 12.1582 13.6309V18.8695V24.1079H12.163C12.1626 24.478 12.2569 24.8529 12.4557 25.1961C13.0567 26.2338 14.3853 26.5878 15.4229 25.9869L19.9593 23.3676L19.9574 23.3638L24.4618 20.7635C24.7949 20.5786 25.0833 20.3036 25.2871 19.9492C25.8835 18.9115 25.5256 17.5868 24.4878 16.9904L20.0712 14.4405C20.0346 14.4165 19.9977 14.3934 19.9593 14.3713Z" fill="#F74F5C"/>
<path d="M15.5503 11.8255L19.959 14.3711C19.9975 14.3931 20.0343 14.4163 20.0708 14.4403L24.4874 16.9902C25.5253 17.5866 25.883 18.9113 25.2867 19.949C25.0829 20.3034 24.7945 20.5784 24.4614 20.7633L19.9571 23.3636L19.959 23.3674L15.4225 25.9867C14.3848 26.5877 13.0563 26.2337 12.4553 25.1959C12.2566 24.8526 12.1622 24.4777 12.1626 24.1077H12.1578V18.8693V13.6306C12.1578 12.4288 13.1324 11.4543 14.3343 11.4543C14.7848 11.4543 15.2032 11.591 15.5503 11.8255ZM36.8358 33.2422V9.16369V4.49153C36.8358 2.51493 35.2186 0.897705 33.2419 0.897705H4.49129C2.51468 0.897705 0.897461 2.51493 0.897461 4.49153V33.2422C0.897461 35.2188 2.51459 36.836 4.49129 36.836H9.16336H33.2419C35.2186 36.836 36.8358 35.2188 36.8358 33.2422Z" fill="#E1E6E9"/>
<path d="M36.8356 9.16366V33.2421C36.8356 35.2187 35.2185 36.836 33.2418 36.836H9.16333V41.5081C9.16333 43.4847 10.7806 45.102 12.7572 45.102H41.5078C43.4845 45.102 45.1016 43.4847 45.1016 41.5081V12.7574C45.1016 10.7808 43.4845 9.16357 41.5078 9.16357L36.8356 9.16366Z" fill="#BCCBD3"/>
<path d="M41.5088 8.26599H37.7352V4.49229C37.7352 2.01524 35.72 0 33.2429 0H4.49229C2.01524 0 0 2.01524 0 4.49229V33.2429C0 35.72 2.01524 37.7352 4.49229 37.7352H8.2659V41.5089C8.2659 43.986 10.2811 46.0012 12.7582 46.0012H41.5088C43.9859 46.0012 46.0011 43.986 46.0011 41.5089V12.7582C46.0012 10.2811 43.986 8.26599 41.5088 8.26599ZM1.79691 33.2429V4.49229C1.79691 3.00606 3.00606 1.79691 4.49229 1.79691H33.2429C34.7291 1.79691 35.9383 3.00606 35.9383 4.49229V33.2429C35.9383 34.7291 34.7291 35.9383 33.2429 35.9383H4.49229C3.00606 35.9383 1.79691 34.7292 1.79691 33.2429ZM44.2042 41.5089C44.2042 42.9951 42.995 44.2043 41.5088 44.2043H12.7582C11.272 44.2043 10.0628 42.9951 10.0628 41.5089V37.7352H33.2429C35.72 37.7352 37.7352 35.72 37.7352 33.2429V10.0629H41.5088C42.995 10.0629 44.2042 11.272 44.2042 12.7583V41.5089Z" fill="black"/>
<path d="M12.7796 41.0588H12.7554C12.2592 41.0588 11.8569 41.4611 11.8569 41.9573C11.8569 42.4535 12.2592 42.8558 12.7554 42.8558H12.7796C13.2759 42.8558 13.6781 42.4535 13.6781 41.9573C13.6781 41.4611 13.276 41.0588 12.7796 41.0588Z" fill="black"/>
<path d="M41.5099 41.0588H15.3609C14.8646 41.0588 14.4624 41.4611 14.4624 41.9573C14.4624 42.4535 14.8646 42.8558 15.3609 42.8558H41.5099C42.006 42.8558 42.4084 42.4535 42.4084 41.9573C42.4084 41.4611 42.006 41.0588 41.5099 41.0588Z" fill="black"/>
<path d="M9.86135 4.94071H9.88561C10.3818 4.94071 10.7841 4.53847 10.7841 4.04226C10.7841 3.54604 10.3818 3.1438 9.88561 3.1438H9.86135C9.36513 3.1438 8.96289 3.54604 8.96289 4.04226C8.96289 4.53847 9.36513 4.94071 9.86135 4.94071Z" fill="black"/>
<path d="M7.27984 3.1438H4.49147C3.99526 3.1438 3.59302 3.54604 3.59302 4.04226C3.59302 4.53847 3.99526 4.94071 4.49147 4.94071H7.27975C7.77597 4.94071 8.1782 4.53847 8.1782 4.04226C8.17829 3.54604 7.77606 3.1438 7.27984 3.1438Z" fill="black"/>
<path d="M11.6783 25.6462C12.2254 26.591 13.2441 27.1779 14.3368 27.1779C14.8746 27.1779 15.406 27.0349 15.8722 26.7648L20.4087 24.1455C20.4344 24.1306 20.4591 24.1147 20.4828 24.0977L24.9049 21.5448C25.3876 21.2752 25.789 20.8785 26.066 20.3967C26.474 19.6867 26.5811 18.8603 26.3676 18.0699C26.154 17.2793 25.6455 16.6192 24.9371 16.2122L20.542 13.6748C20.4979 13.6462 20.4534 13.6187 20.4087 13.593L16.0249 11.0618C15.5228 10.7307 14.939 10.5559 14.3346 10.5559C12.6392 10.5559 11.2598 11.9352 11.2598 13.6308V24.1078C11.2598 24.1444 11.262 24.1805 11.2662 24.2159C11.2839 24.7172 11.4254 25.2096 11.6783 25.6462ZM13.0569 13.6308C13.0569 12.9261 13.6302 12.3528 14.3348 12.3528C14.591 12.3528 14.8375 12.4279 15.0478 12.57C15.0654 12.5817 15.0832 12.593 15.1015 12.6036L19.5121 15.1502C19.5342 15.1629 19.5554 15.1764 19.5764 15.1903C19.5913 15.2001 19.6065 15.2096 19.622 15.2185L24.0403 17.7694C24.3341 17.9382 24.5445 18.2113 24.6329 18.5385C24.7213 18.8657 24.677 19.2077 24.5082 19.5013C24.3929 19.7019 24.226 19.8667 24.0259 19.9778C24.0215 19.9803 24.017 19.9828 24.0126 19.9853L19.5083 22.5856C19.4825 22.6004 19.4578 22.6164 19.4341 22.6334L14.9727 25.2093C14.7788 25.3216 14.5588 25.3811 14.3368 25.3811C13.8831 25.3811 13.4602 25.1377 13.2332 24.7458C13.1206 24.5514 13.0613 24.3311 13.0614 24.1087C13.0614 24.0781 13.0599 24.0477 13.0568 24.0175L13.0569 13.6308Z" fill="black"/>
</svg>
