<svg width="20" height="20" viewBox="0 0 20 20" fill="none" xmlns="http://www.w3.org/2000/svg">
<path d="M8.67784 6.24757L6.76105 5.14082C6.61015 5.03891 6.42824 4.97949 6.23242 4.97949C5.70984 4.97949 5.28613 5.40316 5.28613 5.9257V8.20327V10.4808H5.2882C5.28805 10.6417 5.32906 10.8047 5.41547 10.9539C5.67676 11.4051 6.25441 11.559 6.70554 11.2977L8.67784 10.1589L8.67702 10.1573L10.6354 9.02674C10.7802 8.94635 10.9056 8.82678 10.9942 8.67272C11.2535 8.22155 11.0979 7.64561 10.6467 7.38632L8.72647 6.27769C8.71057 6.26726 8.69452 6.25718 8.67784 6.24757Z" fill="#F74F5C"/>
<path d="M6.76078 5.1417L8.67757 6.24845C8.69428 6.25802 8.7103 6.26814 8.72616 6.27857L10.6464 7.3872C11.0976 7.6465 11.2531 8.22243 10.9939 8.6736C10.9053 8.82766 10.7799 8.94723 10.6351 9.02762L8.67671 10.1582L8.67753 10.1598L6.70523 11.2986C6.25406 11.5599 5.67644 11.406 5.41516 10.9548C5.32875 10.8055 5.28773 10.6425 5.28789 10.4817H5.28582V8.20415V5.92654C5.28582 5.404 5.70953 4.98033 6.23211 4.98033C6.42796 4.98033 6.60988 5.03975 6.76078 5.1417ZM16.0151 14.4531V3.98444V1.95312C16.0151 1.09375 15.312 0.390625 14.4526 0.390625H1.95263C1.09326 0.390625 0.390137 1.09375 0.390137 1.95312V14.4531C0.390137 15.3124 1.09322 16.0156 1.95263 16.0156H3.98391H14.4526C15.312 16.0156 16.0151 15.3124 16.0151 14.4531Z" fill="#E1E6E9"/>
<path d="M16.015 3.98344V14.4521C16.015 15.3114 15.3119 16.0146 14.4525 16.0146H3.98389V18.0459C3.98389 18.9053 4.68701 19.6084 5.54638 19.6084H18.0463C18.9057 19.6084 19.6088 18.9053 19.6088 18.0459V5.54589C19.6088 4.68652 18.9057 3.9834 18.0463 3.9834L16.015 3.98344Z" fill="#BCCBD3"/>
<path d="M18.0468 3.59381H16.4062V1.95312C16.4062 0.876168 15.53 0 14.4531 0H1.95312C0.876168 0 0 0.876168 0 1.95312V14.4531C0 15.53 0.876168 16.4062 1.95312 16.4062H3.59378V18.0469C3.59378 19.1238 4.46994 20 5.54689 20H18.0468C19.1238 20 20 19.1238 20 18.0469V5.54689C20 4.46994 19.1238 3.59381 18.0468 3.59381ZM0.781247 14.4531V1.95312C0.781247 1.30695 1.30695 0.781247 1.95312 0.781247H14.4531C15.0992 0.781247 15.6249 1.30695 15.6249 1.95312V14.4531C15.6249 15.0992 15.0992 15.6249 14.4531 15.6249H1.95312C1.30695 15.6249 0.781247 15.0993 0.781247 14.4531ZM19.2187 18.0469C19.2187 18.6931 18.693 19.2188 18.0468 19.2188H5.54689C4.90072 19.2188 4.37502 18.6931 4.37502 18.0469V16.4062H14.4531C15.53 16.4062 16.4062 15.53 16.4062 14.4531V4.37506H18.0468C18.693 4.37506 19.2187 4.90076 19.2187 5.54693V18.0469Z" fill="black"/>
<path d="M5.5562 17.8516H5.54565C5.32991 17.8516 5.15503 18.0264 5.15503 18.2422C5.15503 18.4579 5.32991 18.6328 5.54565 18.6328H5.5562C5.77194 18.6328 5.94682 18.4579 5.94682 18.2422C5.94682 18.0264 5.77198 17.8516 5.5562 17.8516Z" fill="black"/>
<path d="M18.0473 17.8516H6.67847C6.46272 17.8516 6.28784 18.0264 6.28784 18.2422C6.28784 18.4579 6.46272 18.6328 6.67847 18.6328H18.0473C18.263 18.6328 18.4379 18.4579 18.4379 18.2422C18.4379 18.0264 18.263 17.8516 18.0473 17.8516Z" fill="black"/>
<path d="M4.28735 2.14843H4.2979C4.51364 2.14843 4.68852 1.97355 4.68852 1.75781C4.68852 1.54207 4.51364 1.36719 4.2979 1.36719H4.28735C4.07161 1.36719 3.89673 1.54207 3.89673 1.75781C3.89673 1.97355 4.07161 2.14843 4.28735 2.14843Z" fill="black"/>
<path d="M3.16494 1.36719H1.95264C1.73689 1.36719 1.56201 1.54207 1.56201 1.75781C1.56201 1.97355 1.73689 2.14843 1.95264 2.14843H3.1649C3.38064 2.14843 3.55552 1.97355 3.55552 1.75781C3.55556 1.54207 3.38068 1.36719 3.16494 1.36719Z" fill="black"/>
<path d="M5.07746 11.1497C5.31535 11.5605 5.75824 11.8156 6.23332 11.8156C6.46714 11.8156 6.69816 11.7534 6.90085 11.636L8.87319 10.4972C8.88436 10.4908 8.8951 10.4838 8.90541 10.4765L10.828 9.36654C11.0379 9.24932 11.2124 9.07682 11.3328 8.86737C11.5102 8.55869 11.5568 8.1994 11.464 7.85573C11.3711 7.51202 11.15 7.22503 10.842 7.04808L8.93116 5.94488C8.91198 5.93242 8.89264 5.92046 8.87319 5.90929L6.96726 4.80883C6.74894 4.66488 6.49515 4.58887 6.23238 4.58887C5.49523 4.58887 4.89551 5.18855 4.89551 5.92574V10.4808C4.89551 10.4967 4.89648 10.5124 4.89832 10.5278C4.90602 10.7458 4.96754 10.9599 5.07746 11.1497ZM5.67683 5.92574C5.67683 5.61937 5.92609 5.37011 6.23246 5.37011C6.34382 5.37011 6.45101 5.40277 6.54245 5.46453C6.55007 5.46964 6.55785 5.47453 6.56577 5.47914L8.48338 6.58632C8.49299 6.59187 8.50221 6.59773 8.51135 6.60378C8.51784 6.60804 8.52444 6.61214 8.53116 6.61605L10.4521 7.72507C10.5799 7.79846 10.6713 7.91721 10.7098 8.05948C10.7482 8.20174 10.7289 8.35041 10.6556 8.47807C10.6054 8.5653 10.5329 8.63694 10.4458 8.68526C10.4439 8.68631 10.442 8.68741 10.4401 8.6885L8.48174 9.81904C8.47053 9.82549 8.45979 9.83244 8.44948 9.83982L6.5098 10.9597C6.42546 11.0086 6.32984 11.0344 6.23332 11.0344C6.03605 11.0344 5.85218 10.9286 5.75351 10.7582C5.70457 10.6737 5.67875 10.5779 5.67882 10.4812C5.67882 10.4679 5.67816 10.4547 5.67679 10.4416L5.67683 5.92574Z" fill="black"/>
</svg>
